<?xml version="1.0" encoding="UTF-8" standalone="no"?>
<!DOCTYPE svg PUBLIC "-//W3C//DTD SVG 1.1//EN" "http://www.w3.org/Graphics/SVG/1.1/DTD/svg11.dtd">
<svg width="100%" height="100%" viewBox="0 0 225 254" version="1.1" xmlns="http://www.w3.org/2000/svg" xmlns:xlink="http://www.w3.org/1999/xlink" xml:space="preserve" xmlns:serif="http://www.serif.com/" style="fill-rule:evenodd;clip-rule:evenodd;stroke-linejoin:round;stroke-miterlimit:2;">
    <g transform="matrix(1,0,0,1,-1424.58,-438.692)">
        <g transform="matrix(-1.59813,0,0,1.59813,1649.15,502.586)">
            <path d="M4.501,108.271C14.194,100.698 5.41,82.221 5.41,82.221C-12.159,37.392 18.237,14.809 23.434,11.865C34.016,5.872 59.184,0 71.889,16.127C75.483,20.688 74.282,26.352 72.628,30.311C68.371,40.499 56.927,49.659 47.118,50.729C44.321,51.041 42.283,50.4 40.904,48.793C36.519,43.689 38.831,30.259 40.094,25.514C40.437,24.222 39.668,22.895 38.374,22.549C38.001,22.45 37.633,22.466 37.278,22.538C36.404,22.715 35.653,23.347 35.409,24.27C34.879,26.267 30.413,44.022 37.226,51.952C38.728,53.701 41.4,55.648 45.842,55.648C46.412,55.648 47.013,55.615 47.643,55.547C59.215,54.283 72.152,44.02 77.1,32.178C78.345,29.199 78.966,26.318 79.033,23.599C106.778,23.599 138.452,39.067 140.515,66.888C140.581,67.781 140.033,68.604 139.183,68.886C138.333,69.17 137.399,68.839 136.918,68.084C135.214,65.408 133.093,62.512 130.985,60.688C130.683,65.069 129.352,69.255 127.052,73.077C122.448,80.73 119.989,89.519 119.989,98.449L119.945,114.934C119.71,116.954 114.939,118.569 109.044,118.569C103.148,118.569 98.376,116.954 98.141,114.934L98.097,104.235C98.097,101.427 96.926,98.743 94.867,96.831C92.808,94.918 90.05,94.152 87.241,94.152C85.498,94.152 81.932,94.154 81.724,94.152C79.029,94.124 76.433,95.359 74.519,97.257C72.602,99.154 71.525,101.739 71.525,104.434L71.481,114.934C71.246,116.954 66.475,118.569 60.58,118.569C54.684,118.569 49.912,116.954 49.677,114.934L49.633,105.693C49.633,78.262 29.531,66.021 27.143,64.569C15.29,57.368 20.555,79.191 20.555,79.191C28.43,103.726 10.256,114.934 10.256,114.934L10.175,114.839C10.118,114.897 10.102,114.991 10.036,115.04C8.872,115.918 6.754,115.076 5.308,113.154C3.975,111.39 3.731,109.381 4.593,108.377L4.501,108.271Z" style="fill:rgb(62,62,62);fill-rule:nonzero;"/>
        </g>
        <g transform="matrix(0.200751,-0.053791,0.053791,0.200751,1488.98,455.735)">
            <path d="M444.885,374.72C445.205,384.085 445.93,392.299 447.274,398.592C450.837,415.168 440.853,431.68 424.511,436.181C421.204,437.098 342.356,458.666 255.999,458.666C250.111,458.666 245.332,453.887 245.332,447.999C245.332,442.111 250.111,437.332 255.999,437.332C339.498,437.332 415.615,416.489 418.836,415.615C424.297,414.122 427.625,408.618 426.431,403.092C424.511,394.239 423.636,382.463 423.444,368.959C423.423,368.959 423.38,368.938 423.359,368.938C422.058,284.095 452.052,125.439 468.906,66.965C469.183,66.005 469.333,65.002 469.333,64C469.333,29.205 345.429,10.667 256,10.667C166.571,10.667 42.667,29.205 42.667,64C42.667,65.003 42.795,66.005 43.094,66.965C59.969,125.418 89.942,284.096 88.641,368.917C46.443,378.923 0,396.736 0,426.667C0,475.691 128.789,501.334 256,501.334C383.211,501.334 512,475.691 512,426.667C512,401.813 479.936,385.323 444.885,374.72ZM152.491,371.093C152.406,376.917 147.627,381.589 141.824,381.589L141.653,381.589C135.765,381.504 131.05,376.661 131.157,370.752C132.501,283.776 105.984,146.048 91.776,85.376C90.432,79.637 93.995,73.899 99.733,72.555C105.429,71.211 111.21,74.774 112.554,80.512C126.976,142.059 153.856,282.027 152.491,371.093Z" style="fill:rgb(46,44,42);fill-rule:nonzero;stroke:rgb(96,91,88);stroke-width:4.81px;"/>
        </g>
        <g transform="matrix(0.82829,0,0,0.82829,1422.72,401.366)">
            <path d="M210.931,235.892C210.931,235.892 212.577,233.585 211.623,231.507C208.943,225.659 200.019,230.034 200.625,238.001C200.625,238.001 201.225,254.542 224.778,255.321C230.918,255.526 239.25,254.196 245.918,246.835C250.523,241.751 249.27,232.392 243.362,230.216C236.997,227.87 228.816,229.57 222.709,238.868C216.906,247.7 205.46,241.559 205.647,235.663C205.822,230.209 212.142,232.342 210.931,235.892Z" style="fill:rgb(137,136,136);fill-rule:nonzero;"/>
        </g>
        <g transform="matrix(0.460277,0,0,0.460277,1080.31,368.14)">
            <g transform="matrix(0.140757,0,0,0.140757,1120.34,396.692)">
                <path d="M266.667,0.016C247.831,0.016 229.827,3.456 213.03,9.46C212.661,6.417 211.224,3.596 208.646,1.85C205.708,-0.14 201.958,-0.567 198.708,0.777C196.375,1.714 141.229,24.391 107.791,91.243C106.145,94.545 106.312,98.472 108.249,101.618C109.978,104.395 112.926,105.975 116.115,106.364C110.108,123.164 106.666,141.171 106.666,160.012C106.666,178.782 110.083,196.727 116.046,213.474C99.008,214.165 85.332,228.138 85.332,245.343C85.332,259.231 94.276,270.959 106.665,275.377L106.665,501.335C106.665,507.231 111.436,512.001 117.332,512.001C123.228,512.001 127.999,507.23 127.999,501.335L127.999,275.376C134.671,272.997 140.338,268.553 144.138,262.707C173.51,297.692 217.513,320.006 266.665,320.006C354.894,320.006 426.665,248.237 426.665,160.011C426.665,71.785 354.896,0.016 266.667,0.016ZM117.333,256C111.458,256 106.666,251.219 106.666,245.333C106.666,239.448 111.458,234.666 117.333,234.666C123.208,234.666 128,239.448 128,245.333C128,251.219 123.208,256 117.333,256ZM266.667,298.667C190.208,298.667 128,236.458 128,160C128,83.542 190.208,21.333 266.667,21.333C343.126,21.333 405.333,83.542 405.333,160C405.333,236.458 343.125,298.667 266.667,298.667Z" style="fill:rgb(215,215,215);fill-rule:nonzero;"/>
            </g>
            <g transform="matrix(0.140757,0,0,0.140757,1120.34,396.692)">
                <path d="M266.667,42.667C201.979,42.667 149.334,95.302 149.334,160C149.334,165.896 154.105,170.667 160.001,170.667C165.897,170.667 170.668,165.896 170.668,160C170.668,107.062 213.731,64 266.668,64C272.564,64 277.335,59.229 277.335,53.333C277.333,47.438 272.563,42.667 266.667,42.667Z" style="fill:rgb(215,215,215);fill-rule:nonzero;"/>
            </g>
        </g>
    </g>
</svg>
