<?xml version="1.0" encoding="UTF-8" standalone="no"?>
<!DOCTYPE svg PUBLIC "-//W3C//DTD SVG 1.1//EN" "http://www.w3.org/Graphics/SVG/1.1/DTD/svg11.dtd">
<svg width="100%" height="100%" viewBox="0 0 225 189" version="1.1" xmlns="http://www.w3.org/2000/svg" xmlns:xlink="http://www.w3.org/1999/xlink" xml:space="preserve" xmlns:serif="http://www.serif.com/" style="fill-rule:evenodd;clip-rule:evenodd;stroke-linecap:round;stroke-linejoin:round;stroke-miterlimit:10;">
    <g transform="matrix(1,0,0,1,-2000,-480.425)">
        <g transform="matrix(-0.117779,-3.36103e-05,0.000132857,-0.465563,2090.68,696.033)">
            <path d="M169.559,456.566C216.555,457.083 264.42,451.401 291.816,439.542C292.276,439.343 292.73,439.143 293.178,438.94C306.645,432.856 314.816,425.2 314.954,415.977" style="fill:none;fill-rule:nonzero;stroke:rgb(85,85,88);stroke-width:17.82px;"/>
        </g>
        <g transform="matrix(1.59813,0,0,1.59813,2000,479.74)">
            <path d="M4.501,108.271C14.194,100.698 5.41,82.221 5.41,82.221C-12.159,37.392 18.237,14.809 23.434,11.865C34.016,5.872 59.184,0 71.889,16.127C75.483,20.688 74.282,26.352 72.628,30.311C68.371,40.499 56.927,49.659 47.118,50.729C44.321,51.041 42.283,50.4 40.904,48.793C36.519,43.689 38.831,30.259 40.094,25.514C40.437,24.222 39.668,22.895 38.374,22.549C38.001,22.45 37.633,22.466 37.278,22.538C36.404,22.715 35.653,23.347 35.409,24.27C34.879,26.267 30.413,44.022 37.226,51.952C38.728,53.701 41.4,55.648 45.842,55.648C46.412,55.648 47.013,55.615 47.643,55.547C59.215,54.283 72.152,44.02 77.1,32.178C78.345,29.199 78.966,26.318 79.033,23.599C106.778,23.599 138.452,39.067 140.515,66.888C140.581,67.781 140.033,68.604 139.183,68.886C138.333,69.17 137.399,68.839 136.918,68.084C135.214,65.408 133.093,62.512 130.985,60.688C130.683,65.069 129.352,69.255 127.052,73.077C122.448,80.73 119.989,89.519 119.989,98.449L119.945,114.934C119.71,116.954 114.939,118.569 109.044,118.569C103.148,118.569 98.376,116.954 98.141,114.934L98.097,104.235C98.097,101.427 96.926,98.743 94.867,96.831C92.808,94.918 90.05,94.152 87.241,94.152C85.498,94.152 81.932,94.154 81.724,94.152C79.029,94.124 76.433,95.359 74.519,97.257C72.602,99.154 71.525,101.739 71.525,104.434L71.481,114.934C71.246,116.954 66.475,118.569 60.58,118.569C54.684,118.569 49.912,116.954 49.677,114.934L49.633,105.693C49.633,78.262 29.531,66.021 27.143,64.569C15.29,57.368 20.555,79.191 20.555,79.191C28.43,103.726 10.256,114.934 10.256,114.934L10.175,114.839C10.118,114.897 10.102,114.991 10.036,115.04C8.872,115.918 6.754,115.076 5.308,113.154C3.975,111.39 3.731,109.381 4.593,108.377L4.501,108.271Z" style="fill:rgb(88,135,160);fill-rule:nonzero;"/>
        </g>
        <g transform="matrix(-1,0,0,1,2102.92,353.906)">
            <path d="M16.235,191.422L16.53,191.422C21.041,191.422 24.699,187.765 24.699,183.255L24.699,158.006C24.699,153.496 21.041,149.838 16.53,149.838L16.235,149.838C11.722,149.838 8.066,153.496 8.066,158.006L8.066,183.255C8.066,187.765 11.722,191.422 16.235,191.422Z" style="fill:rgb(153,153,153);fill-rule:nonzero;"/>
        </g>
        <g transform="matrix(-1,0,0,1,2102.92,353.906)">
            <path d="M16.235,191.423L16.235,194.194L16.53,194.194C22.574,194.193 27.469,189.297 27.471,183.255L27.471,158.006C27.469,151.964 22.574,147.069 16.53,147.067L16.235,147.067C10.191,147.069 5.296,151.964 5.293,158.006L5.293,183.255C5.296,189.297 10.191,194.193 16.235,194.194L16.235,188.65C13.254,188.645 10.843,186.232 10.837,183.255L10.837,158.006C10.843,155.029 13.254,152.616 16.235,152.612L16.53,152.612C19.509,152.616 21.922,155.029 21.927,158.006L21.927,183.255C21.922,186.232 19.509,188.645 16.53,188.65L16.235,188.65L16.235,191.423Z" style="fill:rgb(85,85,88);fill-rule:nonzero;"/>
        </g>
        <g transform="matrix(1,0,0,1,500,309.98)">
            <path d="M1547.62,303.091C1547.62,302.718 1547.32,302.414 1546.94,302.414L1523.2,302.414C1522.83,302.414 1522.53,302.718 1522.53,303.091L1522.53,338.098C1522.53,338.472 1522.83,338.775 1523.2,338.775L1546.94,338.775C1547.32,338.775 1547.62,338.472 1547.62,338.098L1547.62,303.091Z" style="fill:rgb(230,230,230);"/>
        </g>
        <g transform="matrix(1,0,0,1,1853.39,518.635)">
            <path d="M173.572,113.048L189.68,113.048C190.316,113.048 190.831,112.533 190.831,111.897L190.831,98.09C190.831,97.455 190.316,96.94 189.68,96.94L173.572,96.94C172.937,96.94 172.421,97.455 172.421,98.09L172.421,111.897C172.421,112.533 172.937,113.048 173.572,113.048ZM174.723,99.241L188.529,99.241L188.529,110.747L174.723,110.747L174.723,99.241Z" style="fill:rgb(85,85,88);fill-rule:nonzero;"/>
        </g>
        <g transform="matrix(1,0,0,1,1853.39,550.851)">
            <path d="M181.626,83.133C178.449,83.133 175.873,85.709 175.873,88.886C175.873,92.063 178.449,94.639 181.626,94.639C184.803,94.639 187.379,92.063 187.379,88.886C187.375,85.71 184.802,83.138 181.626,83.133ZM181.626,92.338C179.72,92.338 178.174,90.792 178.174,88.886C178.174,86.98 179.72,85.435 181.626,85.435C183.533,85.435 185.078,86.98 185.078,88.886C185.078,90.792 183.533,92.338 181.626,92.338Z" style="fill:rgb(85,85,88);fill-rule:nonzero;"/>
        </g>
        <g transform="matrix(0.465563,0,0,0.465563,1853.39,532.442)">
            <path d="M380.236,168.679L375.293,168.679L367.879,168.679C363.785,168.679 360.465,171.999 360.465,176.093L360.465,245.291C360.465,249.385 363.785,252.705 367.879,252.705L412.363,252.705C416.459,252.705 419.777,249.385 419.777,245.291L419.777,176.093C419.777,171.999 416.459,168.679 412.363,168.679L380.236,168.679ZM414.834,176.093L414.834,245.291C414.834,246.656 413.729,247.762 412.363,247.762L367.879,247.762C366.514,247.762 365.408,246.656 365.408,245.291L365.408,176.093C365.408,174.729 366.514,173.622 367.879,173.622L412.363,173.622C413.729,173.622 414.834,174.729 414.834,176.093Z" style="fill:rgb(85,85,88);fill-rule:nonzero;stroke:rgb(84,89,110);stroke-width:0.75px;stroke-linecap:butt;"/>
        </g>
        <g transform="matrix(0.707168,-0.707045,-0.707045,-0.707168,1981.19,823.757)">
            <rect x="176.31" y="105.57" width="4.882" height="2.3" style="fill:rgb(85,85,88);"/>
        </g>
        <g transform="matrix(0.707015,-0.707199,-0.707199,-0.707015,1980.48,828.847)">
            <rect x="182.062" y="102.118" width="4.882" height="2.301" style="fill:rgb(85,85,88);"/>
        </g>
        <g transform="matrix(0.465563,0,0,0.465563,1853.39,461.851)">
            <path d="M503.021,181.023C503.021,182.666 502.804,227.471 502.427,230.861C497.359,276.339 495.255,283.783 460.007,285.714C444.724,286.551 408.598,287.57 397.535,293.926C385.514,300.831 388.939,311.268 389.399,320.304" style="fill:none;fill-rule:nonzero;stroke:rgb(85,85,88);stroke-width:8.5px;"/>
        </g>
        <g transform="matrix(-0.117779,-3.36103e-05,0.000132857,-0.465563,2090.68,696.033)">
            <path d="M35.635,415.168C35.035,446.888 127.525,460.36 206.221,455.7" style="fill:none;fill-rule:nonzero;stroke:rgb(85,85,88);stroke-width:17.82px;"/>
        </g>
        <g transform="matrix(1,0,0,1,1852.5,496.562)">
            <path d="M159.251,116.995L160.28,119.054L163.217,117.585L163.217,109.717L155.163,111.328L155.163,117.313L153.499,118.146L154.527,120.205L157.464,118.736L157.464,113.215L160.916,112.525L160.916,116.163L159.251,116.995Z" style="fill:rgb(85,85,88);fill-rule:nonzero;"/>
        </g>
        <g transform="matrix(1,0,0,1,1855.04,501.893)">
            <path d="M207.705,105.275L205.772,107.93L207.891,112.016L206.796,113.522L208.656,114.875L210.588,112.219L208.47,108.133L209.565,106.627L207.705,105.275Z" style="fill:rgb(85,85,88);fill-rule:nonzero;"/>
        </g>
        <g transform="matrix(1,0,0,1,1855.04,509.958)">
            <path d="M199.446,110.601L202.312,108.998L202.101,104.4L203.726,103.492L202.603,101.484L199.737,103.086L199.948,107.684L198.324,108.592L199.446,110.601Z" style="fill:rgb(85,85,88);fill-rule:nonzero;"/>
        </g>
    </g>
</svg>
