<?xml version="1.0" encoding="UTF-8" standalone="no"?>
<!DOCTYPE svg PUBLIC "-//W3C//DTD SVG 1.1//EN" "http://www.w3.org/Graphics/SVG/1.1/DTD/svg11.dtd">
<svg width="100%" height="100%" viewBox="0 0 449 333" version="1.1" xmlns="http://www.w3.org/2000/svg" xmlns:xlink="http://www.w3.org/1999/xlink" xml:space="preserve" xmlns:serif="http://www.serif.com/" style="fill-rule:evenodd;clip-rule:evenodd;stroke-linejoin:round;stroke-miterlimit:2;">
    <g transform="matrix(1,0,0,1,-1848.8,-146.922)">
        <g id="XMLID_325_" transform="matrix(0.312469,0,0,0.312469,2145.56,326.964)">
            <path d="M485.054,149.171C483.239,147.369 480.519,146.843 478.157,147.831L370,193.443C367.639,194.448 366.11,196.795 366.172,199.367C366.222,201.948 367.844,204.234 370.258,205.128L387.907,211.673L361.815,237.768C346.764,252.813 326.767,261.098 305.473,261.098C292.677,261.098 280.511,257.778 269.455,252.131L386.665,134.904L393.194,152.523C394.097,154.95 396.367,156.563 398.955,156.626C401.522,156.671 403.865,155.155 404.871,152.779L450.498,44.622C451.491,42.26 450.966,39.543 449.143,37.741C447.344,35.926 444.624,35.396 442.263,36.387L334.107,82.015C331.728,83.02 330.215,85.368 330.257,87.938C330.327,90.521 331.937,92.789 334.362,93.699L352.001,100.239L234.823,217.417C219.628,187.51 224.163,150.081 249.137,125.09L275.232,98.998L281.755,116.616C282.667,119.043 284.937,120.652 287.525,120.715C290.093,120.764 292.433,119.249 293.44,116.872L339.057,8.729C340.043,6.366 339.519,3.655 337.713,1.832C335.895,0.031 333.184,-0.497 330.821,0.493L222.659,46.106C220.297,47.111 218.766,49.457 218.83,52.027C218.879,54.611 220.509,56.893 222.914,57.787L240.564,64.333L214.473,90.426C170.234,134.665 165.048,203.356 198.848,253.391L7.189,445.049C-2.388,454.623 -2.388,470.138 7.189,479.71C11.976,484.499 18.25,486.893 24.521,486.893C30.794,486.893 37.066,484.5 41.853,479.71L233.511,288.054C255.173,302.688 280.306,310.062 305.473,310.062C338.431,310.062 371.388,297.517 396.478,272.428L422.57,246.334L429.1,263.953C430.011,266.38 432.273,267.994 434.859,268.055C437.428,268.106 439.776,266.586 440.783,264.209L486.392,156.066C487.385,153.704 486.852,150.992 485.054,149.171Z" style="fill:rgb(173,54,4);fill-rule:nonzero;"/>
        </g>
        <g transform="matrix(0.312469,0,0,0.312469,2005.26,141.595)">
            <path d="M419.631,17.452C413.361,15.969 406.848,18.652 403.443,24.119C400.038,29.586 400.503,36.617 404.599,41.588C415.983,55.403 422,71.792 422,88.98C422,112.79 411.066,134.661 392.001,148.986C385.378,153.963 384.043,163.366 389.02,169.989L427.292,234.038C431.13,241.379 440.193,244.219 447.535,240.38C487.298,219.588 512,178.818 512,133.98C512,77.705 472.894,30.061 419.631,17.452Z" style="fill:rgb(240,56,0);fill-rule:nonzero;"/>
        </g>
        <g transform="matrix(0.714182,0,0,0.714182,1848.8,146.602)">
            <path d="M488.909,418.392C454.069,391.173 485.643,324.76 485.643,324.76C548.79,163.626 439.535,82.453 420.855,71.873C382.822,50.332 292.358,29.225 246.689,87.192C233.773,103.586 238.09,123.946 244.035,138.176C259.337,174.794 300.471,207.72 335.728,211.564C345.782,212.687 353.105,210.382 358.064,204.606C373.825,186.259 365.515,137.988 360.973,120.934C359.74,116.29 362.504,111.518 367.157,110.276C368.498,109.92 369.821,109.976 371.095,110.235C374.237,110.872 376.937,113.144 377.815,116.46C379.72,123.639 395.771,187.458 371.283,215.961C365.882,222.247 356.279,229.247 340.313,229.247C338.263,229.247 336.103,229.128 333.84,228.881C292.247,224.339 245.745,187.449 227.96,144.886C223.485,134.178 221.253,123.821 221.012,114.051C121.284,114.051 7.437,169.647 0.021,269.648C-0.217,272.856 1.756,275.815 4.81,276.827C7.864,277.848 11.223,276.658 12.95,273.945C19.074,264.329 26.7,253.918 34.275,247.36C35.362,263.109 40.146,278.156 48.411,291.892C64.963,319.4 73.801,350.99 73.801,383.09L73.959,442.343C74.802,449.604 91.954,455.408 113.14,455.408C134.334,455.408 151.486,449.604 152.33,442.343L152.488,403.888C152.488,393.792 156.698,384.146 164.098,377.272C171.498,370.399 181.414,367.644 191.511,367.644C197.774,367.644 210.59,367.653 211.339,367.644C221.027,367.543 230.358,371.981 237.238,378.803C244.128,385.625 247.999,394.913 247.999,404.602L248.157,442.342C249,449.603 266.151,455.407 287.338,455.407C308.532,455.407 325.684,449.603 326.528,442.342L326.686,409.127C326.686,310.528 398.94,266.529 407.525,261.313C450.131,235.427 431.205,313.87 431.205,313.87C402.898,402.058 468.222,442.342 468.222,442.342L468.515,442.003C468.719,442.211 468.777,442.547 469.013,442.725C473.197,445.88 480.812,442.853 486.008,435.946C490.8,429.606 491.676,422.382 488.577,418.775L488.909,418.392Z" style="fill:url(#_Linear1);fill-rule:nonzero;"/>
        </g>
        <g transform="matrix(0.312469,0,0,0.312469,2029.16,153.297)">
            <path d="M119.999,148.986C100.934,134.661 90,112.79 90,88.98C90,71.792 96.017,55.403 107.401,41.587C111.497,36.616 111.963,29.586 108.557,24.118C105.152,18.651 98.639,15.968 92.369,17.451C39.113,30.059 0,77.698 0,133.98C0,178.818 24.702,219.588 64.465,240.38C71.805,244.219 80.869,241.379 84.708,234.038L122.98,169.989C127.957,163.366 126.622,153.962 119.999,148.986Z" style="fill:rgb(255,100,26);fill-rule:nonzero;"/>
        </g>
    </g>
    <defs>
        <linearGradient id="_Linear1" x1="0" y1="0" x2="1" y2="0" gradientUnits="userSpaceOnUse" gradientTransform="matrix(559.896,-337.122,337.122,559.896,25.4884,403.186)"><stop offset="0" style="stop-color:rgb(255,145,0);stop-opacity:1"/><stop offset="0.47" style="stop-color:rgb(248,113,2);stop-opacity:1"/><stop offset="1" style="stop-color:rgb(229,29,9);stop-opacity:1"/></linearGradient>
    </defs>
</svg>
