<?xml version="1.0" encoding="UTF-8" standalone="no"?>
<!DOCTYPE svg PUBLIC "-//W3C//DTD SVG 1.1//EN" "http://www.w3.org/Graphics/SVG/1.1/DTD/svg11.dtd">
<svg width="100%" height="100%" viewBox="0 0 305 245" version="1.1" xmlns="http://www.w3.org/2000/svg" xmlns:xlink="http://www.w3.org/1999/xlink" xml:space="preserve" xmlns:serif="http://www.serif.com/" style="fill-rule:evenodd;clip-rule:evenodd;stroke-linejoin:round;stroke-miterlimit:2;">
    <g transform="matrix(1,0,0,1,-2445.44,-1062.04)">
        <g transform="matrix(0.60247,0,0,0.60247,2445.44,1032.11)">
            <path d="M488.909,418.392C454.069,391.173 485.643,324.76 485.643,324.76C548.79,163.626 439.535,82.453 420.855,71.873C382.822,50.332 292.358,29.225 246.689,87.192C233.773,103.586 238.09,123.946 244.035,138.176C259.337,174.794 300.471,207.72 335.728,211.564C345.782,212.687 353.105,210.382 358.064,204.606C373.825,186.259 365.515,137.988 360.973,120.934C359.74,116.29 362.504,111.518 367.157,110.276C368.498,109.92 369.821,109.976 371.095,110.235C374.237,110.872 376.937,113.144 377.815,116.46C379.72,123.639 395.771,187.458 371.283,215.961C365.882,222.247 356.279,229.247 340.313,229.247C338.263,229.247 336.103,229.128 333.84,228.881C292.247,224.339 245.745,187.449 227.96,144.886C223.485,134.178 221.253,123.821 221.012,114.051C121.284,114.051 7.437,169.647 0.021,269.648C-0.217,272.856 1.756,275.815 4.81,276.827C7.864,277.848 11.223,276.658 12.95,273.945C19.074,264.329 26.7,253.918 34.275,247.36C35.362,263.109 40.146,278.156 48.411,291.892C64.963,319.4 73.801,350.99 73.801,383.09L73.959,442.343C74.802,449.604 91.954,455.408 113.14,455.408C134.334,455.408 151.486,449.604 152.33,442.343L152.488,403.888C152.488,393.792 156.698,384.146 164.098,377.272C171.498,370.399 181.414,367.644 191.511,367.644C197.774,367.644 210.59,367.653 211.339,367.644C221.027,367.543 230.358,371.981 237.238,378.803C244.128,385.625 247.999,394.913 247.999,404.602L248.157,442.342C249,449.603 266.151,455.407 287.338,455.407C308.532,455.407 325.684,449.603 326.528,442.342L326.686,409.127C326.686,310.528 398.94,266.529 407.525,261.313C450.131,235.427 431.205,313.87 431.205,313.87C402.898,402.058 468.222,442.342 468.222,442.342L468.515,442.003C468.719,442.211 468.777,442.547 469.013,442.725C473.197,445.88 480.812,442.853 486.008,435.946C490.8,429.606 491.676,422.382 488.577,418.775L488.909,418.392Z" style="fill:rgb(3,92,103);fill-rule:nonzero;"/>
        </g>
    </g>
</svg>
