<?xml version="1.0" encoding="UTF-8" standalone="no"?>
<!DOCTYPE svg PUBLIC "-//W3C//DTD SVG 1.1//EN" "http://www.w3.org/Graphics/SVG/1.1/DTD/svg11.dtd">
<svg width="100%" height="100%" viewBox="0 0 231 211" version="1.1" xmlns="http://www.w3.org/2000/svg" xmlns:xlink="http://www.w3.org/1999/xlink" xml:space="preserve" xmlns:serif="http://www.serif.com/" style="fill-rule:evenodd;clip-rule:evenodd;stroke-linejoin:round;stroke-miterlimit:2;">
    <g transform="matrix(1,0,0,1,-506.67,-2179.58)">
        <g transform="matrix(1.59813,0,0,1.59813,512.576,2200.49)">
            <path d="M4.501,108.271C14.194,100.698 5.41,82.221 5.41,82.221C-12.159,37.392 18.237,14.809 23.434,11.865C34.016,5.872 59.184,0 71.889,16.127C75.483,20.688 74.282,26.352 72.628,30.311C68.371,40.499 56.927,49.659 47.118,50.729C44.321,51.041 42.283,50.4 40.904,48.793C36.519,43.689 38.831,30.259 40.094,25.514C40.437,24.222 39.668,22.895 38.374,22.549C38.001,22.45 37.633,22.466 37.278,22.538C36.404,22.715 35.653,23.347 35.409,24.27C34.879,26.267 30.413,44.022 37.226,51.952C38.728,53.701 41.4,55.648 45.842,55.648C46.412,55.648 47.013,55.615 47.643,55.547C59.215,54.283 72.152,44.02 77.1,32.178C78.345,29.199 78.966,26.318 79.033,23.599C106.778,23.599 138.452,39.067 140.515,66.888C140.581,67.781 140.033,68.604 139.183,68.886C138.333,69.17 137.399,68.839 136.918,68.084C135.214,65.408 133.093,62.512 130.985,60.688C130.683,65.069 129.352,69.255 127.052,73.077C122.448,80.73 119.989,89.519 119.989,98.449L119.945,114.934C119.71,116.954 114.939,118.569 109.044,118.569C103.148,118.569 98.376,116.954 98.141,114.934L98.097,104.235C98.097,101.427 96.926,98.743 94.867,96.831C92.808,94.918 90.05,94.152 87.241,94.152C85.498,94.152 81.932,94.154 81.724,94.152C79.029,94.124 76.433,95.359 74.519,97.257C72.602,99.154 71.525,101.739 71.525,104.434L71.481,114.934C71.246,116.954 66.475,118.569 60.58,118.569C54.684,118.569 49.912,116.954 49.677,114.934L49.633,105.693C49.633,78.262 29.531,66.021 27.143,64.569C15.29,57.368 20.555,79.191 20.555,79.191C28.43,103.726 10.256,114.934 10.256,114.934L10.175,114.839C10.118,114.897 10.102,114.991 10.036,115.04C8.872,115.918 6.754,115.076 5.308,113.154C3.975,111.39 3.731,109.381 4.593,108.377L4.501,108.271Z" style="fill:rgb(2,92,101);fill-rule:nonzero;"/>
        </g>
        <g transform="matrix(0.323597,0,0,0.323597,496.122,2179.58)">
            <path d="M313.507,22.763L288.996,22.68L257.133,22.586C109.453,33.987 114.717,137.21 114.717,137.21L114.718,137.21L36.61,190.507C29.271,195.515 32.637,206.996 41.519,207.251C181.424,211.272 223.288,144.292 223.288,144.291L322.912,148.279L355.235,160.611L369.195,165.945L416.022,142.213C416.023,142.214 455.404,35.367 313.507,22.763Z" style="fill:rgb(117,112,107);fill-rule:nonzero;"/>
        </g>
        <g transform="matrix(0.323597,0,0,0.323597,496.122,2179.58)">
            <path d="M322.914,148.284C322.914,148.284 356.88,202.63 469.149,202.425C479.819,202.405 484.1,188.666 475.286,182.652L416.02,142.212L322.914,148.284Z" style="fill:rgb(96,91,88);fill-rule:nonzero;"/>
        </g>
        <g transform="matrix(0.323597,0,0,0.323597,496.122,2179.58)">
            <path d="M416.023,142.214L369.196,165.946L355.236,160.612C354.882,156.777 355.342,151.974 356.782,146.073C373.056,79.031 309.944,35.166 288.997,22.68L313.508,22.763C455.404,35.367 416.023,142.214 416.023,142.214Z" style="fill:rgb(96,91,88);fill-rule:nonzero;"/>
        </g>
        <g transform="matrix(0.323597,0,0,0.323597,496.122,2179.58)">
            <path d="M223.287,144.291L322.912,148.284L312.712,12.225C312.196,5.33 306.452,0 299.538,0L273.45,0C267.516,0 262.311,3.955 260.721,9.672L223.287,144.291Z" style="fill:rgb(140,136,132);fill-rule:nonzero;"/>
        </g>
    </g>
</svg>
